<?xml version="1.0" encoding="utf-8" ?>	<!-- Generator: Assembly 2.2 - http://assemblyapp.co -->	<svg version="1.1" xmlns="http://www.w3.org/2000/svg" xmlns:xlink="http://www.w3.org/1999/xlink" width="2048.00" height="2048.00" viewBox="0 0 2048.0 2048.0">		<g id="document" transform="matrix(1,0,0,1,1024.0,1024.0)">			<path d="M8.83759e-06,801.555 C442.965,801.555 801.555,442.965 801.555,-1.10052e-06 C801.555,-442.965 442.965,-801.555 6.63655e-06,-801.555 C-442.965,-801.555 -801.555,-442.965 -801.555,1.10052e-06 C-801.555,442.965 -442.965,801.555 8.83759e-06,801.555 Z " fill="#da4620" fill-opacity="1.00" />			<g>				<path d="M-443.871,325.579 L-317.223,325.579 L-317.223,198.932 L-443.871,198.932 L-443.871,325.579 Z " fill="#e3d1b9" fill-opacity="1.00" />				<path d="M-443.871,478.762 L-317.223,478.762 L-317.223,352.114 L-443.871,352.114 L-443.871,478.762 Z " fill="#e3d1b9" fill-opacity="1.00" />				<path d="M-595.848,174.808 L-469.2,174.808 L-469.2,48.1605 L-595.848,48.1605 L-595.848,174.808 Z " fill="#e3d1b9" fill-opacity="1.00" />				<path d="M-443.871,174.808 L-317.223,174.808 L-317.223,48.1605 L-443.871,48.1605 L-443.871,174.808 Z " fill="#e3d1b9" fill-opacity="1.00" />				<path d="M-291.894,174.808 L-165.246,174.808 L-165.246,48.1605 L-291.894,48.1605 L-291.894,174.808 Z " fill="#e3d1b9" fill-opacity="1.00" />				<path d="M-139.915,174.808 L-13.2676,174.808 L-13.2676,48.1605 L-139.915,48.1605 L-139.915,174.808 Z " fill="#e3d1b9" fill-opacity="1.00" />				<path d="M13.2676,174.808 L139.915,174.808 L139.915,48.1605 L13.2676,48.1605 L13.2676,174.808 Z " fill="#e3d1b9" fill-opacity="1.00" />				<path d="M164.039,174.808 L290.686,174.808 L290.686,48.1605 L164.039,48.1605 L164.039,174.808 Z " fill="#e3d1b9" fill-opacity="1.00" />				<path d="M317.222,174.808 L443.869,174.808 L443.869,48.1605 L317.222,48.1605 L317.222,174.808 Z " fill="#e3d1b9" fill-opacity="1.00" />				<path d="M469.2,174.808 L595.848,174.808 L595.848,48.1605 L469.2,48.1605 L469.2,174.808 Z " fill="#e3d1b9" fill-opacity="1.00" />				<path d="M-595.848,325.579 L-469.2,325.579 L-469.2,198.932 L-595.848,198.932 L-595.848,325.579 Z " fill="#e3d1b9" fill-opacity="1.00" />				<path d="M-291.894,325.579 L-165.246,325.579 L-165.246,198.932 L-291.894,198.932 L-291.894,325.579 Z " fill="#e3d1b9" fill-opacity="1.00" />				<path d="M-139.915,325.579 L-13.2676,325.579 L-13.2676,198.932 L-139.915,198.932 L-139.915,325.579 Z " fill="#e3d1b9" fill-opacity="1.00" />				<path d="M13.2676,325.579 L139.915,325.579 L139.915,198.932 L13.2676,198.932 L13.2676,325.579 Z " fill="#e3d1b9" fill-opacity="1.00" />				<path d="M164.039,325.579 L290.686,325.579 L290.686,198.932 L164.039,198.932 L164.039,325.579 Z " fill="#e3d1b9" fill-opacity="1.00" />				<path d="M317.222,325.579 L443.869,325.579 L443.869,198.932 L317.222,198.932 L317.222,325.579 Z " fill="#e3d1b9" fill-opacity="1.00" />				<path d="M469.2,325.579 L595.848,325.579 L595.848,198.932 L469.2,198.932 L469.2,325.579 Z " fill="#e3d1b9" fill-opacity="1.00" />				<path d="M-595.848,478.762 L-469.2,478.762 L-469.2,352.114 L-595.848,352.114 L-595.848,478.762 Z " fill="#e3d1b9" fill-opacity="1.00" />				<path d="M-291.894,478.762 L-165.246,478.762 L-165.246,352.114 L-291.894,352.114 L-291.894,478.762 Z " fill="#e3d1b9" fill-opacity="1.00" />				<path d="M-139.915,478.762 L-13.2676,478.762 L-13.2676,352.114 L-139.915,352.114 L-139.915,478.762 Z " fill="#e3d1b9" fill-opacity="1.00" />				<path d="M13.2676,478.762 L139.915,478.762 L139.915,352.114 L13.2676,352.114 L13.2676,478.762 Z " fill="#e3d1b9" fill-opacity="1.00" />				<path d="M164.039,478.762 L290.686,478.762 L290.686,352.114 L164.039,352.114 L164.039,478.762 Z " fill="#e3d1b9" fill-opacity="1.00" />				<path d="M317.222,478.762 L443.869,478.762 L443.869,352.114 L317.222,352.114 L317.222,478.762 Z " fill="#e3d1b9" fill-opacity="1.00" />				<path d="M469.2,478.762 L595.848,478.762 L595.848,352.114 L469.2,352.114 L469.2,478.762 Z " fill="#e3d1b9" fill-opacity="1.00" />				<path d="M-291.894,630.741 L295.104,630.741 L295.104,504.093 L-291.894,504.093 L-291.894,630.741 Z " fill="#e3d1b9" fill-opacity="1.00" />			</g>			<g>				<defs>					<filter id="HubA0PsL" x="-14.35%" y="0.00%" width="174.20%" height="168.42%" filterUnits="objectBoundingBox">						<feOffset dx="63.23" dy="259.39" in="SourceAlpha" result="shadowOffsetOuter1" />						<feGaussianBlur stdDeviation="60.72" in="shadowOffsetOuter1" result="shadowBlurOuter1" />						<feFlood flood-color="#4d4d4d" flood-opacity="0.23" />						<feComposite in2="shadowBlurOuter1" operator="in" />						<feMerge>							<feMergeNode />							<feMergeNode in="SourceGraphic" />						</feMerge>					</filter>				</defs>				<path d="M254.351,-210.803 L-151.459,-718.871 L-67.5512,-162.276 L254.351,-210.803 Z " fill="#ffcc1a" fill-opacity="1.00" filter="url(#HubA0PsL)" />				<defs>					<filter id="3z1nCMD6" x="-14.35%" y="0.00%" width="174.20%" height="168.42%" filterUnits="objectBoundingBox">						<feOffset dx="63.23" dy="259.39" in="SourceAlpha" result="shadowOffsetOuter1" />						<feGaussianBlur stdDeviation="60.72" in="shadowOffsetOuter1" result="shadowBlurOuter1" />						<feFlood flood-color="#4d4d4d" flood-opacity="0.23" />						<feComposite in2="shadowBlurOuter1" operator="in" />						<feMerge>							<feMergeNode />							<feMergeNode in="SourceGraphic" />						</feMerge>					</filter>				</defs>				<path d="M-254.351,-235.106 L151.459,272.962 L67.5512,-283.634 L-254.351,-235.106 Z " fill="#ffcc1a" fill-opacity="1.00" filter="url(#3z1nCMD6)" />			</g>		</g>	</svg>